<svg xmlns="http://www.w3.org/2000/svg" viewBox="0 0 64 64" role="img" aria-label="Project Launcher Workbench">
  <defs>
    <linearGradient id="background" x1="7" y1="5" x2="57" y2="59" gradientUnits="userSpaceOnUse">
      <stop offset="0" stop-color="#0b0f0a"/>
      <stop offset=".55" stop-color="#030604"/>
      <stop offset="1" stop-color="#071006"/>
    </linearGradient>
    <linearGradient id="neon" x1="17" y1="11" x2="51" y2="55" gradientUnits="userSpaceOnUse">
      <stop offset="0" stop-color="#c6ff18"/>
      <stop offset=".45" stop-color="#96f000"/>
      <stop offset="1" stop-color="#5fd600"/>
    </linearGradient>
    <mask id="letter-mask" maskUnits="userSpaceOnUse" x="0" y="0" width="64" height="64">
      <rect width="64" height="64" fill="#000"/>
      <path d="M14 10h22c13 0 22 8 22 20s-9 20-22 20h-9v7H14V10Zm13 11v18h9c6 0 10-3.5 10-9s-4-9-10-9h-9Z" fill="#fff" fill-rule="evenodd"/>
      <rect x="17.5" y="14" width="7.5" height="7.5" rx="1.2" fill="#000"/>
      <rect x="17.5" y="45.5" width="7.5" height="7.5" rx="1.2" fill="#000"/>
    </mask>
  </defs>

  <rect x="2" y="2" width="60" height="60" rx="13" fill="url(#background)"/>
  <rect x="2.75" y="2.75" width="58.5" height="58.5" rx="12.25" fill="none" stroke="#274314" stroke-width="1.5"/>
  <rect x="12" y="8" width="48" height="51" fill="url(#neon)" mask="url(#letter-mask)"/>
</svg>
